<svg width="880" height="678" viewBox="0 0 880 678" fill="none" xmlns="http://www.w3.org/2000/svg">
<path fill-rule="evenodd" clip-rule="evenodd" d="M492.116 10.9551C599.006 -5.62762 734.429 -10.6709 807.432 49.5936C881.654 110.865 816.485 208.361 830.276 290.11C840.453 350.432 891.964 404.72 877.437 464.549C861.638 529.62 818.651 592.675 747.218 632.195C675.342 671.96 581.739 676.014 492.116 677.725C400.185 679.48 308.999 673.44 227.294 642.122C134.759 606.653 19.6539 565.992 1.92838 489.833C-15.9455 413.037 95.0319 356.521 144.854 287.916C183.206 235.106 204.889 178.448 259.957 134.528C326.457 81.4905 396.557 25.7799 492.116 10.9551Z" fill="#42645A" fill-opacity="0.3"/>
</svg>
