<svg width="20" height="16" viewBox="0 0 20 16" fill="none" xmlns="http://www.w3.org/2000/svg">
<path d="M10 1.9C11.45 1.9 12.625 2.84 12.625 4C12.625 5.16 11.45 6.1 10 6.1C8.55 6.1 7.375 5.16 7.375 4C7.375 2.84 8.55 1.9 10 1.9ZM10 10.9C13.7125 10.9 17.625 12.36 17.625 13V14.1H2.375V13C2.375 12.36 6.2875 10.9 10 10.9ZM10 0C7.2375 0 5 1.79 5 4C5 6.21 7.2375 8 10 8C12.7625 8 15 6.21 15 4C15 1.79 12.7625 0 10 0ZM10 9C6.6625 9 0 10.34 0 13V16H20V13C20 10.34 13.3375 9 10 9Z" fill="black" fill-opacity="0.36"/>
</svg>
